{
	"asset":{
		"generator":"Khronos glTF Blender I/O v4.2.57",
		"version":"2.0"
	},
	"extensionsUsed":[
		"KHR_materials_specular"
	],
	"scene":0,
	"scenes":[
		{
			"name":"Scene",
			"nodes":[
				0
			]
		}
	],
	"nodes":[
		{
			"mesh":0,
			"name":"Untitled",
			"rotation":[
				0.7071068286895752,
				0,
				0,
				0.7071068286895752
			]
		}
	],
	"materials":[
		{
			"doubleSided":true,
			"extensions":{
				"KHR_materials_specular":{
					"specularFactor":0
				}
			},
			"name":"BellToweOfXian-from-images",
			"pbrMetallicRoughness":{
				"baseColorFactor":[
					0.800000011920929,
					0.800000011920929,
					0.800000011920929,
					1
				],
				"metallicFactor":0
			}
		}
	],
	"meshes":[
		{
			"name":"Untitled",
			"primitives":[
				{
					"attributes":{
						"POSITION":0,
						"NORMAL":1,
						"TEXCOORD_0":2
					},
					"indices":3,
					"material":0
				}
			]
		}
	],
	"accessors":[
		{
			"bufferView":0,
			"componentType":5126,
			"count":140345,
			"max":[
				19.881118774414062,
				19.356233596801758,
				3.1672327518463135
			],
			"min":[
				-19.825054168701172,
				-19.62574577331543,
				-5.599896430969238
			],
			"type":"VEC3"
		},
		{
			"bufferView":1,
			"componentType":5126,
			"count":140345,
			"type":"VEC3"
		},
		{
			"bufferView":2,
			"componentType":5126,
			"count":140345,
			"type":"VEC2"
		},
		{
			"bufferView":3,
			"componentType":5125,
			"count":279423,
			"type":"SCALAR"
		}
	],
	"bufferViews":[
		{
			"buffer":0,
			"byteLength":1684140,
			"byteOffset":0,
			"target":34962
		},
		{
			"buffer":0,
			"byteLength":1684140,
			"byteOffset":1684140,
			"target":34962
		},
		{
			"buffer":0,
			"byteLength":1122760,
			"byteOffset":3368280,
			"target":34962
		},
		{
			"buffer":0,
			"byteLength":1117692,
			"byteOffset":4491040,
			"target":34963
		}
	],
	"buffers":[
		{
			"byteLength":5608732,
			"uri":"BellToweOfXian-from-images.bin"
		}
	]
}
