{
  "accessors": [
    {
      "bufferView": 2,
      "componentType": 5126,
      "count": 65532,
      "max": [
        17.115259170532227,
        4.355022430419922,
        8.51976490020752
      ],
      "min": [
        0.1684713065624237,
        -14.649930953979492,
        3.4237465858459473
      ],
      "type": "VEC3"
    },
    {
      "bufferView": 2,
      "byteOffset": 786384,
      "componentType": 5126,
      "count": 65532,
      "max": [
        0.9998108744621277,
        0.9998569488525391,
        0.9999998807907104
      ],
      "min": [
        -0.99961918592453,
        -0.9998913407325745,
        -0.9999979138374329
      ],
      "type": "VEC3"
    },
    {
      "bufferView": 1,
      "componentType": 5126,
      "count": 65532,
      "max": [
        0.9994788765907288,
        0.9721678495407104
      ],
      "min": [
        0.00048828125,
        0.0006388021865859628
      ],
      "type": "VEC2"
    },
    {
      "bufferView": 0,
      "componentType": 5125,
      "count": 306192,
      "type": "SCALAR"
    },
    {
      "bufferView": 2,
      "byteOffset": 1572768,
      "componentType": 5126,
      "count": 65532,
      "max": [
        16.63672637939453,
        4.146936416625977,
        11.077317237854004
      ],
      "min": [
        -5.910423755645752,
        -13.213987350463867,
        3.4254651069641113
      ],
      "type": "VEC3"
    },
    {
      "bufferView": 2,
      "byteOffset": 2359152,
      "componentType": 5126,
      "count": 65532,
      "max": [
        0.9999827146530151,
        0.9998308420181274,
        0.9999998211860657
      ],
      "min": [
        -0.99996018409729,
        -0.9999217391014099,
        -0.9994388222694397
      ],
      "type": "VEC3"
    },
    {
      "bufferView": 1,
      "byteOffset": 524256,
      "componentType": 5126,
      "count": 65532,
      "max": [
        0.9995028972625732,
        0.9760740995407104
      ],
      "min": [
        0.00048828125,
        0.0004944397369399667
      ],
      "type": "VEC2"
    },
    {
      "bufferView": 0,
      "byteOffset": 1224768,
      "componentType": 5125,
      "count": 280071,
      "type": "SCALAR"
    },
    {
      "bufferView": 2,
      "byteOffset": 3145536,
      "componentType": 5126,
      "count": 54456,
      "max": [
        17.156070709228516,
        4.165592193603516,
        10.036486625671387
      ],
      "min": [
        -3.3250954151153564,
        -14.675800323486328,
        3.410796642303467
      ],
      "type": "VEC3"
    },
    {
      "bufferView": 2,
      "byteOffset": 3799008,
      "componentType": 5126,
      "count": 54456,
      "max": [
        0.9997469186782837,
        0.9998626708984375,
        0.9999945163726807
      ],
      "min": [
        -0.999938428401947,
        -0.9999531507492065,
        -0.9997746348381042
      ],
      "type": "VEC3"
    },
    {
      "bufferView": 1,
      "byteOffset": 1048512,
      "componentType": 5126,
      "count": 54456,
      "max": [
        0.9994056224822998,
        0.9956053495407104
      ],
      "min": [
        0.00048828125,
        0.0004885984817519784
      ],
      "type": "VEC2"
    },
    {
      "bufferView": 0,
      "byteOffset": 2345052,
      "componentType": 5125,
      "count": 194670,
      "type": "SCALAR"
    }
  ],
  "asset": {
    "extras": {
      "author": "CUNO (https://sketchfab.com/jiannibang)",
      "license": "CC-BY-4.0 (http://creativecommons.org/licenses/by/4.0/)",
      "source": "https://sketchfab.com/3d-models/yueyang-tower-b2898e5c57234b5aa6119c884341b1b1",
      "title": "岳阳楼 Yueyang Tower"
    },
    "generator": "Sketchfab-14.38.0",
    "version": "2.0"
  },
  "bufferViews": [
    {
      "buffer": 0,
      "byteLength": 3123732,
      "name": "floatBufferViews",
      "target": 34963
    },
    {
      "buffer": 0,
      "byteLength": 1484160,
      "byteOffset": 3123732,
      "byteStride": 8,
      "name": "floatBufferViews",
      "target": 34962
    },
    {
      "buffer": 0,
      "byteLength": 4452480,
      "byteOffset": 4607892,
      "byteStride": 12,
      "name": "floatBufferViews",
      "target": 34962
    }
  ],
  "buffers": [
    {
      "byteLength": 9060372,
      "uri": "scene.bin"
    }
  ],
  "images": [
    {
      "uri": "textures/tex_u1_v1_baseColor.jpeg"
    }
  ],
  "materials": [
    {
      "doubleSided": true,
      "name": "tex_u1_v1",
      "pbrMetallicRoughness": {
        "baseColorTexture": {
          "index": 0
        },
        "metallicFactor": 0.0
      }
    }
  ],
  "meshes": [
    {
      "name": "Object_0",
      "primitives": [
        {
          "attributes": {
            "NORMAL": 1,
            "POSITION": 0,
            "TEXCOORD_0": 2
          },
          "indices": 3,
          "material": 0,
          "mode": 4
        }
      ]
    },
    {
      "name": "Object_1",
      "primitives": [
        {
          "attributes": {
            "NORMAL": 5,
            "POSITION": 4,
            "TEXCOORD_0": 6
          },
          "indices": 7,
          "material": 0,
          "mode": 4
        }
      ]
    },
    {
      "name": "Object_2",
      "primitives": [
        {
          "attributes": {
            "NORMAL": 9,
            "POSITION": 8,
            "TEXCOORD_0": 10
          },
          "indices": 11,
          "material": 0,
          "mode": 4
        }
      ]
    }
  ],
  "nodes": [
    {
      "children": [
        1
      ],
      "matrix": [
        1.0,
        0.0,
        0.0,
        0.0,
        0.0,
        2.220446049250313e-16,
        -1.0,
        0.0,
        0.0,
        1.0,
        2.220446049250313e-16,
        0.0,
        0.0,
        0.0,
        0.0,
        1.0
      ],
      "name": "Sketchfab_model"
    },
    {
      "children": [
        2,
        3,
        4
      ],
      "name": "model.obj.cleaner.materialmerger.gles"
    },
    {
      "mesh": 0,
      "name": "Object_2"
    },
    {
      "mesh": 1,
      "name": "Object_3"
    },
    {
      "mesh": 2,
      "name": "Object_4"
    }
  ],
  "samplers": [
    {
      "magFilter": 9729,
      "minFilter": 9987,
      "wrapS": 10497,
      "wrapT": 10497
    }
  ],
  "scene": 0,
  "scenes": [
    {
      "name": "Sketchfab_Scene",
      "nodes": [
        0
      ]
    }
  ],
  "textures": [
    {
      "sampler": 0,
      "source": 0
    }
  ]
}
